<?xml version="1.0" standalone="no"?>
<!DOCTYPE svg PUBLIC "-//W3C//DTD SVG 20010904//EN"
 "http://www.w3.org/TR/2001/REC-SVG-20010904/DTD/svg10.dtd">
<svg version="1.0" xmlns="http://www.w3.org/2000/svg"
 width="1200.000000pt" height="1200.000000pt" viewBox="0 0 1200.000000 1200.000000"
 preserveAspectRatio="xMidYMid meet">

<g transform="translate(0.000000,1200.000000) scale(0.100000,-0.100000)"
fill="#000000" stroke="none">
<path d="M0 6000 l0 -6000 6000 0 6000 0 0 6000 0 6000 -6000 0 -6000 0 0
-6000z m5345 2540 l860 -860 -1260 -1260 -1260 -1260 1260 -1260 1260 -1260
-1220 0 -1220 0 -1260 1260 -1260 1260 1255 1255 1255 1255 -955 0 -955 0
-865 865 -865 865 2185 0 2185 0 860 -860z m4768 2 l857 -857 -1762 -1763
-1763 -1762 1475 0 1475 0 760 -760 760 -760 -2695 0 -2695 0 -762 762 -763
763 1752 1752 1753 1753 -945 0 -945 0 -865 865 -865 865 2185 0 2185 0 858
-858z"/>
</g>
</svg>
